<?xml version="1.0" encoding="UTF-8" standalone="no"?><!DOCTYPE svg PUBLIC "-//W3C//DTD SVG 1.1//EN" "http://www.w3.org/Graphics/SVG/1.1/DTD/svg11.dtd"><svg t="1626672902160" class="icon" viewBox="0 0 32 32" version="1.1" xmlns="http://www.w3.org/2000/svg" p-id="2700" width="32px" height="32px" xmlns:xlink="http://www.w3.org/1999/xlink"><defs><style type="text/css"></style></defs><path d="M446.899789 383.056962c242.602742 0 446.899789-89.379958 446.899788-191.528481 0-108.532806-197.912764-191.528481-446.899788-191.528481S0 89.379958 0 191.528481c0 108.532806 197.912764 191.528481 446.899789 191.528481z m0 204.297046h19.152848c38.305696-89.379958 127.685654-146.838502 242.602742-146.838502 51.074262 0 95.76424 12.768565 146.838502 38.305696 19.152848-25.537131 38.305696-51.074262 38.305696-82.995675V242.602742c0 108.532806-197.912764 191.528481-446.899788 191.528481-242.602742 0-446.899789-89.379958-446.899789-191.528481v146.838502c0 108.532806 197.912764 197.912764 446.899789 197.912764z m0 197.912763h12.768565c-12.768565-25.537131-19.152848-57.458544-19.152848-89.379957 0-19.152848 0-38.305696 6.384283-57.458545-242.602742 0-446.899789-89.379958-446.899789-191.52848v146.838502c0 108.532806 197.912764 191.528481 446.899789 191.52848z m178.759915 153.222785c-57.458544-19.152848-108.532806-51.074262-146.838502-102.148523H446.899789c-242.602742 0-446.899789-89.379958-446.899789-191.528481v146.838502c0 108.532806 197.912764 191.528481 446.899789 191.528481 63.842827 0 127.685654-6.384283 191.52848-19.152848-12.768565-6.384283-12.768565-12.768565-12.768565-25.537131 0 6.384283 0 6.384283 0 0z m389.441244 6.384283l-134.069936-134.069937-6.384283-6.384283c19.152848-31.921413 31.921413-70.22711 31.921414-114.917088 0-114.917088-95.76424-210.681329-217.065612-210.681329S472.436919 574.585442 472.436919 689.502531s95.76424 210.681329 217.065612 210.681329c38.305696 0 70.22711-12.768565 102.148523-25.537131 0 0 0 6.384283 6.384283 6.384283l134.069936 134.069936c12.768565 12.768565 44.689979 12.768565 63.842827-6.384282 31.921413-25.537131 31.921413-51.074262 19.152848-63.842827z m-478.821202-255.371308c0-82.995675 70.22711-153.222785 159.607068-153.222785s159.607067 70.22711 159.607067 153.222785-70.22711 153.222785-159.607067 153.222785c-95.76424 0-159.607067-70.22711-159.607068-153.222785z m0 0" fill="" p-id="2701"></path></svg>